<svg width="175" height="164" fill="none" xmlns="http://www.w3.org/2000/svg"><path d="M89.517 4.584l1.146.03-.171 6.706-1.317-.033.135-5.31-1.27.322-.294-1.14 1.771-.575zm4.823 7.146c-.83-.08-1.453-.46-1.864-1.137-.411-.677-.566-1.543-.466-2.593.1-1.05.419-1.867.951-2.454.533-.587 1.215-.84 2.044-.761.837.081 1.46.46 1.869 1.138.408.677.56 1.543.46 2.592-.1 1.05-.415 1.868-.945 2.455-.53.59-1.212.842-2.05.76zm-.832-1.943c.192.393.51.613.953.656.445.043.799-.112 1.067-.465.269-.353.435-.883.504-1.589.07-.713.005-1.267-.19-1.665a1.122 1.122 0 00-.958-.66c-.444-.044-.799.112-1.062.465-.264.353-.43.884-.5 1.598-.069.713-.007 1.266.186 1.66zm11.06-3.327c.628.14 1.11.47 1.445.99a2.16 2.16 0 01.297 1.705 2.16 2.16 0 01-.988 1.419c-.523.33-1.099.422-1.726.284l-1.148-.255-.476 2.151-1.285-.286 1.447-6.55 2.434.541zm-.706 3.19a.92.92 0 00.744-.133c.224-.15.364-.365.426-.646a1 1 0 00-.114-.77.924.924 0 00-.618-.432l-1.149-.255-.437 1.984 1.148.253zm8.03 4.989c-.849.431-1.735.498-2.655.197-.92-.3-1.598-.875-2.028-1.724-.433-.85-.497-1.739-.197-2.67.299-.93.875-1.612 1.721-2.043.846-.435 1.73-.501 2.65-.2.92.3 1.597.875 2.032 1.724.435.851.502 1.741.2 2.671-.302.93-.872 1.613-1.723 2.045zm-3.53-2.097c.266.52.692.875 1.272 1.064.58.188 1.131.152 1.652-.113.52-.264.879-.698 1.076-1.307.198-.608.162-1.173-.104-1.695-.266-.523-.69-.88-1.272-1.07-.582-.188-1.134-.15-1.654.118-.521.267-.88.703-1.077 1.312-.195.605-.159 1.17.107 1.69zm9.983 5.775l-1.393-.611-.934-3.84-1.255 2.881-1.208-.53 2.679-6.149 1.208.53-1.182 2.714 3.283-1.793 1.393.61-3.568 1.994.977 4.194zm3.777-5.549l1.172.604-3.055 5.968-1.172-.604 3.055-5.968zm4.64 6.307c.33.592.323 1.18-.027 1.77-.29.489-.698.787-1.228.895-.53.107-1.049.011-1.553-.29l-2.438-1.454 3.418-5.768 2.265 1.353c.492.293.818.694.972 1.2.155.505.095.994-.185 1.466-.281.477-.69.754-1.224.828zm-2.175 1.312a.737.737 0 00.592.09.788.788 0 00.48-.376.778.778 0 00.097-.594.738.738 0 00-.361-.477l-1.305-.78-.806 1.36 1.303.777zm1.984-3.745l-1.133-.675-.751 1.27 1.133.674a.685.685 0 00.547.081.717.717 0 00.445-.348.734.734 0 00.095-.556.678.678 0 00-.336-.446zm9.233 4.921l-.763 1.009-1.98-1.505-3.278 4.339-1.051-.8 4.041-5.347 3.031 2.304zm-.68 8.263l.49-1.174-2.009-1.758-1.093.647-1.072-.94 6.159-3.511 1.231 1.078-2.627 6.605-1.079-.947zm-.392-3.588l1.381 1.21 1.105-2.672-2.486 1.462zm8.569 2.268c.447.466.666 1.007.658 1.627a2.16 2.16 0 01-.691 1.586 2.147 2.147 0 01-1.607.635c-.616-.017-1.148-.258-1.595-.723l-.815-.849-1.583 1.529-.916-.952 4.816-4.653 1.733 1.8zm-2.346 2.267a.917.917 0 00.694.3c.269-.002.506-.102.711-.3.211-.203.321-.44.33-.707a.93.93 0 00-.278-.703l-.815-.85-1.46 1.41.818.85zm2.075 7.625l.673-1.078-1.695-2.063-1.184.458-.906-1.102 6.649-2.455 1.039 1.265-3.668 6.087-.908-1.112zm.197-3.604l1.167 1.422 1.526-2.455-2.693 1.033zm8.835 4.752l.735 1.085-5.529 3.773-.735-1.085 2.292-1.562-1.395-2.061-2.292 1.562-.742-1.095 5.529-3.77.742 1.094-2.196 1.498 1.395 2.06 2.196-1.5zm3.915 6.628l-1.098.62-.886-1.579-4.726 2.674-.646-1.152 4.725-2.674-.882-1.57 1.098-.62 2.415 4.301zm.566 1.193l.58 1.188-6.004 2.953-.58-1.188 6.004-2.953zm3.195 7.233l-6.178 2.563-.504-1.22 2.144-.89-.287-.7-2.734-.536-.566-1.374 2.903.57a2.168 2.168 0 01.325-1.267 2.05 2.05 0 01.977-.842 2.126 2.126 0 011.695.003 2.15 2.15 0 011.203 1.212l1.022 2.48zm-3.989-1.248l.518 1.257 1.828-.759-.518-1.257a.846.846 0 00-.509-.484.976.976 0 00-.746.019 1.006 1.006 0 00-.547.518.848.848 0 00-.026.706zm5.857 6.969l.321 1.105-6.42 1.877-.369-1.27 5.082-1.485-.692-1.116.992-.63 1.086 1.52zm-5.325 6.779c-.176-.818-.002-1.526.516-2.125.521-.599 1.293-1.009 2.32-1.23 1.027-.223 1.902-.168 2.619.164.721.331 1.168.906 1.341 1.724.176.826.005 1.537-.516 2.13-.52.597-1.295 1.005-2.322 1.227-1.027.221-1.899.166-2.619-.16-.716-.33-1.163-.904-1.339-1.73zm1.595-1.383c-.316.303-.428.672-.333 1.111.093.437.35.73.766.88.416.15.97.148 1.661 0 .697-.15 1.206-.379 1.524-.686.319-.308.43-.68.338-1.117-.093-.436-.35-.73-.763-.875-.416-.146-.973-.143-1.669.007-.701.15-1.208.377-1.524.68zm6.509 9.57c.057.641-.11 1.202-.502 1.681a2.146 2.146 0 01-1.531.802c-.63.055-1.176-.115-1.647-.516-.47-.4-.734-.923-.791-1.564l-.105-1.174-2.189.198-.119-1.317 6.66-.6.224 2.49zm-3.245.293a.93.93 0 00.352.67 1 1 0 00.744.213c.292-.027.525-.141.699-.341a.944.944 0 00.223-.723l-.104-1.174-2.018.181.104 1.174zm-2.322 9.179c-.661-.69-.984-1.517-.968-2.49.017-.972.364-1.79 1.048-2.453.683-.663 1.512-.987 2.487-.97.974.016 1.792.367 2.453 1.051.661.685.984 1.513.967 2.486-.016.97-.366 1.789-1.048 2.457-.682.665-1.512.992-2.486.975-.975-.016-1.793-.367-2.453-1.056zm.962-4c-.418.407-.632.92-.641 1.533-.01.613.187 1.13.591 1.553.404.422.925.637 1.562.649.637.01 1.165-.189 1.586-.597.42-.407.634-.918.646-1.533.01-.613-.188-1.13-.597-1.553-.406-.422-.929-.64-1.566-.649-.635-.012-1.162.186-1.581.596zm-2.443 11.301l.152-1.517 3.356-2.07-3.118-.315.13-1.317 6.654.67-.131 1.317-2.938-.296 2.71 2.586-.152 1.517-2.984-2.796-3.679 2.22zm6.42 1.913l-.214 1.305-6.598-1.086.214-1.304 6.598 1.085zm-4.559 6.362c-.459.498-1.022.67-1.685.517-.552-.126-.961-.427-1.227-.901-.264-.475-.33-.997-.2-1.57l.633-2.774 6.517 1.496-.587 2.578c-.128.561-.406.992-.839 1.298a1.73 1.73 0 01-1.447.271c-.54-.124-.93-.429-1.165-.915zm-1.909-1.677a.742.742 0 00.095.591.78.78 0 00.507.341c.216.05.416.02.594-.09a.749.749 0 00.342-.492l.338-1.486-1.536-.353-.34 1.489zm4.16.749l.295-1.29-1.434-.33-.294 1.29a.689.689 0 00.09.547.718.718 0 00.466.317.72.72 0 00.556-.079.683.683 0 00.321-.455zm-1.845 10.33l-1.188-.42.825-2.351-5.118-1.806.437-1.248 6.309 2.226-1.265 3.599zm-8.052 1.875l1.264.11 1.058-2.455-.946-.849.563-1.312 5.21 4.816-.646 1.505-7.069-.496.566-1.319zm3.285-1.467l-.728 1.689 2.872.243-2.144-1.932zm.458 8.881c-.306.567-.753.942-1.343 1.123a2.145 2.145 0 01-1.716-.179 2.165 2.165 0 01-1.091-1.343c-.171-.594-.105-1.176.2-1.743l.558-1.038-1.932-1.047.627-1.164 5.883 3.189-1.186 2.202zm-2.864-1.556a.928.928 0 00-.076.754c.083.255.249.451.504.589a.996.996 0 00.77.103.937.937 0 00.585-.48l.558-1.037-1.783-.966-.558 1.037zm-6.61 4.301l1.229.317 1.445-2.247-.794-.992.772-1.2 4.348 5.613-.887 1.376-6.893-1.658.78-1.209zm3.482-.904l-.994 1.546 2.793.713-1.799-2.259zm-1.828 9.887l-.808 1.033-5.261-4.141.808-1.033 2.18 1.715 1.533-1.961-2.179-1.715.812-1.04 5.261 4.144-.813 1.04-2.09-1.646-1.533 1.961 2.09 1.643zm-5.108 5.76l-.925-.861 1.229-1.326-3.974-3.707.898-.968 3.975 3.704 1.221-1.319.925.861-3.349 3.616zm-.953.9l-.951.916-4.63-4.84.95-.916 4.631 4.84zm-5.891 5.254l-4.319-5.121 1.006-.854 1.499 1.777.576-.489-.326-2.774 1.129-.959.345 2.946c.425-.16.858-.183 1.3-.074.442.11.808.334 1.096.678.394.467.565 1.009.516 1.622a2.149 2.149 0 01-.785 1.519l-2.037 1.729zm-.033-4.19l-1.037.88 1.277 1.514 1.036-.88c.19-.16.29-.372.305-.634a.992.992 0 00-.248-.709 1.004 1.004 0 00-.658-.365.838.838 0 00-.675.194zm-4.82 7.721l-.949.644-3.746-5.558 1.091-.742 2.964 4.399.846-1.002.901.753-1.107 1.506zm-8.061-3.008c.723-.418 1.448-.472 2.175-.16.727.312 1.355.926 1.88 1.839.526.914.742 1.765.647 2.552-.095.79-.502 1.393-1.224 1.811-.728.422-1.455.474-2.18.16-.725-.315-1.35-.928-1.875-1.842-.526-.913-.742-1.763-.652-2.55.091-.784.502-1.388 1.229-1.81zm1.802 1.099c-.385-.209-.77-.2-1.155.022-.385.224-.585.556-.599.999-.015.444.157.971.508 1.587.357.62.73 1.035 1.12 1.245.39.21.777.202 1.162-.022.388-.224.585-.556.595-.997.009-.441-.162-.973-.519-1.591-.359-.62-.727-1.035-1.112-1.243zm-7.084 9.153c-.591.253-1.174.265-1.749.036a2.146 2.146 0 01-1.229-1.217 2.166 2.166 0 01-.017-1.732c.236-.572.649-.985 1.241-1.235l1.082-.461-.858-2.029 1.214-.518 2.61 6.178-2.294.978zm-1.269-3.01a.923.923 0 00-.528.541 1.01 1.01 0 00.027.775c.114.27.294.458.537.563a.912.912 0 00.753-.009l1.082-.461-.792-1.87-1.079.461zm-9.427.617c.442-.846 1.125-1.417 2.047-1.708.922-.291 1.806-.219 2.648.222.844.439 1.409 1.126 1.704 2.059.293.932.221 1.822-.219 2.667-.439.844-1.119 1.414-2.041 1.707-.923.291-1.807.22-2.653-.221-.846-.439-1.414-1.126-1.709-2.059-.295-.933-.219-1.82.223-2.667zm4.086-.348c-.518-.267-1.069-.31-1.652-.126-.582.183-1.01.536-1.281 1.054-.271.518-.311 1.083-.119 1.691.191.608.547 1.05 1.065 1.322.518.271 1.07.314 1.655.131.584-.184 1.01-.537 1.281-1.059.271-.523.309-1.086.119-1.696-.195-.611-.549-1.05-1.068-1.317zm-11.462 1.112l1.486-.315 2.983 2.583-.646-3.077 1.29-.272 1.379 6.567-1.291.272-.608-2.898-1.636 3.372-1.485.315 1.752-3.702-3.224-2.845zm.131 6.717l-1.305.19-.965-6.638 1.305-.191.965 6.639zm-7.423-2.431c-.611-.289-.946-.773-1.003-1.455-.048-.568.114-1.047.485-1.446.368-.396.846-.62 1.43-.667l2.827-.237.556 6.686-2.626.22c-.571.048-1.068-.088-1.486-.41-.418-.322-.651-.757-.699-1.303-.047-.553.124-1.016.516-1.388zm1.012-2.338a.748.748 0 00-.532.27.786.786 0 00-.171.587.774.774 0 00.266.541.74.74 0 00.57.179l1.515-.126-.131-1.577-1.517.126zm.552 4.206l1.314-.11-.12-1.472-1.315.11a.684.684 0 00-.492.253.73.73 0 00-.162.541c.017.21.1.379.243.508a.671.671 0 00.532.17zm-10.354 1.383l.035-1.264 2.482.069.15-5.443 1.317.036-.186 6.707-3.798-.105zm-4.248-7.115l.283 1.24 2.653.258.516-1.164 1.416.138-2.971 6.452-1.626-.157-1.697-6.905 1.426.138zm2.401 2.688l-1.826-.176.652 2.817 1.174-2.641zm-8.281 3.16c-.633-.116-1.124-.429-1.479-.937a2.154 2.154 0 01-.356-1.693 2.153 2.153 0 01.939-1.453c.51-.346 1.084-.46 1.716-.344l1.155.215.402-2.168 1.295.241-1.22 6.597-2.452-.458zm.594-3.212a.918.918 0 00-.74.159c-.216.158-.351.38-.403.661-.053.289-.007.544.14.768a.93.93 0 00.632.41l1.155.215.369-1.999-1.153-.214zm-6.109-4.998l.076 1.272 2.574.692.699-1.062 1.374.37-3.991 5.872-1.578-.424-.537-7.092 1.383.372zm1.925 3.049l-1.77-.477.178 2.886 1.592-2.409zm-9.943 1.278l-1.226-.455 2.324-6.293 1.227.456-.963 2.607 2.33.866.962-2.607 1.236.46-2.324 6.293-1.236-.461.922-2.5-2.33-.865-.922 2.499zm-7.023-3.127l.537-1.145 1.633.771 2.308-4.928 1.193.563-2.308 4.928 1.626.765-.537 1.145-4.452-2.099zm-1.149-.639l-1.16-.63 3.188-5.899 1.16.63-3.187 5.899zm-6.783-4.038l3.55-5.684 1.118.703-1.234 1.973.64.403 2.536-1.155 1.255.79-2.693 1.224c.28.357.435.763.466 1.221.03.455-.074.875-.31 1.252-.325.52-.784.849-1.383.985a2.134 2.134 0 01-1.68-.288l-2.265-1.424zm3.972-1.303l-1.149-.722-1.05 1.681 1.148.723a.854.854 0 00.694.098.98.98 0 00.597-.451c.145-.234.195-.48.147-.74a.836.836 0 00-.387-.589zm-8.791-2.263l-.9-.714 4.14-5.269 1.034.819-3.278 4.169 1.21.506-.442 1.09-1.764-.601zm.404-8.623c.618.563.887 1.24.811 2.032-.076.79-.468 1.577-1.174 2.354-.709.78-1.45 1.246-2.228 1.393-.777.151-1.473-.057-2.091-.62-.62-.567-.894-1.245-.816-2.034.079-.79.471-1.572 1.18-2.352.708-.78 1.45-1.245 2.224-1.398.775-.15 1.474.057 2.094.625zm-.494 2.056c.08-.432-.043-.797-.373-1.1a1.117 1.117 0 00-1.132-.269c-.425.122-.874.444-1.35.968-.48.53-.76 1.012-.841 1.448-.081.437.043.804.373 1.105.33.3.706.388 1.13.267.422-.124.874-.451 1.354-.981.475-.527.756-1.006.839-1.438zm-10.844-3.983c-.42-.489-.608-1.043-.568-1.661.04-.617.302-1.133.78-1.545a2.152 2.152 0 011.64-.544c.616.05 1.132.32 1.552.809l.768.894 1.664-1.438.86 1.002-5.067 4.377-1.629-1.894zm2.468-2.133a.92.92 0 00-.675-.339.994.994 0 00-.728.263c-.22.191-.344.42-.368.687a.935.935 0 00.238.718l.767.894 1.536-1.326-.77-.897zm-3.462-8.811c.94.162 1.689.642 2.247 1.433.559.792.76 1.658.6 2.598-.16.94-.638 1.691-1.432 2.256-.794.566-1.661.769-2.598.609-.936-.16-1.685-.637-2.244-1.429-.558-.792-.76-1.66-.604-2.602.157-.943.635-1.696 1.429-2.262.799-.565 1.664-.765 2.603-.603zm1.584 3.797c.095-.577-.033-1.116-.388-1.617-.354-.501-.817-.801-1.393-.902-.575-.1-1.121.034-1.64.403-.52.37-.83.845-.927 1.422-.097.58.029 1.119.383 1.62.354.501.818.801 1.395.899.578.1 1.125-.036 1.645-.406.52-.367.827-.842.925-1.419zm-4.571-10.612l.753 1.324-1.535 3.64 2.72-1.56.653 1.147-5.805 3.33-.653-1.147 2.562-1.47-3.701-.527-.753-1.324 4.047.537 1.712-3.95zm-6.333 2.183l-.582-1.188 6.002-2.96.582 1.188-6.001 2.96zm.031-7.836c.086-.673.445-1.14 1.072-1.402.523-.22 1.03-.213 1.52.019.489.231.846.617 1.071 1.161l1.091 2.629-6.173 2.578-1.012-2.442c-.221-.532-.243-1.047-.067-1.546.176-.498.516-.854 1.022-1.066.509-.215 1.003-.191 1.476.069zm-1.295 2.066l.506 1.221 1.358-.568-.507-1.221a.699.699 0 00-.39-.394.726.726 0 00-.563.012.73.73 0 00-.409.389.698.698 0 00.005.561zm3.82-1.815a.74.74 0 00-.421-.427.773.773 0 00-.608.016.763.763 0 00-.426 1.019l.585 1.407 1.454-.608-.584-1.407zm-8.294-7.669l1.213-.351.689 2.395 5.213-1.51.366 1.271-6.425 1.863-1.056-3.668zm5.472-6.219l-1.093.647.561 2.614 1.26.14.3 1.396-7.03-.887-.342-1.603 6.045-3.714.3 1.407zM16.4 98.34l-.385-1.798-2.48 1.476 2.865.322zm-5.51-6.962c-.08-.64.068-1.207.444-1.699a2.15 2.15 0 011.502-.853 2.142 2.142 0 011.664.458c.485.383.765.896.846 1.536l.145 1.17 2.18-.271.164 1.312-6.64.83-.306-2.483zm3.23-.406a.927.927 0 00-.376-.658 1.002 1.002 0 00-.749-.186 1 1 0 00-.687.365.932.932 0 00-.197.73l.145 1.17 2.008-.25-.145-1.17zm2.892-7.356l-1.184.458.124 2.672 1.222.346.066 1.426-6.788-2.035-.076-1.636 6.57-2.667.066 1.436zm-2.31 2.767l-.086-1.839-2.686 1.047 2.772.792zm-4.243-9.103l.057-1.311 6.68.296-.058 1.312-2.767-.122-.109 2.49 2.767.122-.057 1.321-6.68-.296.058-1.321 2.652.117.11-2.49-2.653-.117zm.811-7.663l1.25.16-.231 1.796 5.381.692-.166 1.311-5.382-.691-.228 1.786-1.25-.16.625-4.894zm.256-1.3l.242-1.3 6.573 1.235-.243 1.3-6.572-1.235zm1.749-7.714l6.482 1.65-.323 1.284-2.248-.573L17 63.7l1.87 2.068-.363 1.44-1.987-2.196a2.16 2.16 0 01-1.015.82 2.03 2.03 0 01-1.284.089 2.142 2.142 0 01-1.36-1.019 2.157 2.157 0 01-.242-1.693l.656-2.605zm2.454 3.394l.332-1.319-1.916-.489-.332 1.32a.847.847 0 00.12.693c.141.22.346.365.612.432s.513.038.746-.086a.85.85 0 00.438-.55zm-.542-9.095l.401-1.078 6.264 2.347-.462 1.24-4.958-1.858-.11 1.31-1.169-.09.034-1.871zm8.307-2.249c-.347.76-.908 1.226-1.68 1.395-.773.17-1.638.033-2.594-.406-.955-.438-1.623-1.006-2.001-1.705-.378-.697-.395-1.426-.047-2.187.349-.768.91-1.233 1.682-1.398.773-.165 1.636-.029 2.591.41.956.44 1.624 1.007 2.004 1.7.38.695.397 1.425.045 2.19zm-2.101.152c.435-.052.744-.284.93-.691.185-.406.156-.795-.09-1.164-.246-.37-.69-.702-1.332-.998-.649-.298-1.19-.42-1.63-.364a1.128 1.128 0 00-.937.691c-.186.408-.155.795.09 1.16.247.364.694.698 1.343.994.651.303 1.193.427 1.626.372zm.482-11.573c.338-.549.806-.9 1.405-1.047a2.146 2.146 0 011.704.274c.537.332.875.8 1.013 1.403.138.603.04 1.18-.297 1.729l-.616 1.004 1.87 1.155-.69 1.126-5.696-3.516 1.307-2.128zm2.774 1.71a.923.923 0 00.117-.749 1.012 1.012 0 00-.469-.615.994.994 0 00-.763-.146.92.92 0 00-.608.446l-.616 1.005 1.726 1.063.613-1.004zm7.321-5.987c.131.947-.097 1.808-.68 2.583-.582.776-1.345 1.231-2.284 1.362-.941.134-1.8-.095-2.579-.684-.78-.59-1.233-1.355-1.364-2.3-.133-.944.093-1.803.675-2.578.582-.775 1.345-1.23 2.289-1.367.944-.133 1.804.093 2.581.68.778.59 1.232 1.357 1.362 2.304zm-3.128 2.665c.578-.084 1.05-.37 1.417-.862.368-.489.513-1.025.435-1.605-.078-.58-.373-1.061-.882-1.448-.509-.384-1.053-.536-1.633-.455-.58.08-1.053.367-1.421.856-.369.489-.511 1.026-.43 1.608.08.582.375 1.066.884 1.45.51.389 1.055.539 1.63.456zm8.69-7.593l-1.026 1.124-3.922-.36 2.308 2.125-.892.973-4.925-4.537.892-.973 2.175 2.004-.623-3.698 1.027-1.123.72 4.034 4.267.431zm-4.002-5.383l.95-.916 4.636 4.835-.951.916-4.635-4.835zm7.45-2.362c.665-.122 1.219.076 1.658.596.366.435.516.919.445 1.458-.072.539-.328.997-.775 1.379l-2.16 1.843-4.332-5.111 2.009-1.713c.437-.372.917-.55 1.445-.534.528.017.968.234 1.324.651.357.422.485.9.385 1.431zm-2.359-.606l-1.005.857.953 1.125 1.005-.856a.69.69 0 00.255-.494.722.722 0 00-.183-.534.736.736 0 00-.492-.272.672.672 0 00-.533.174zm2.888 3.096a.749.749 0 00.276-.531.787.787 0 00-.2-.578.77.77 0 00-.53-.284.741.741 0 00-.568.189l-1.157.987 1.02 1.205 1.16-.988zm4.74-10.268l.704 1.05-2.061 1.39 3.028 4.518-1.093.74-3.732-5.568 3.154-2.13zm7.571 3.322l-.949-.844-2.308 1.336.255 1.247-1.234.713-1.315-6.986 1.415-.818 5.377 4.632-1.241.72zm-3.509-.791l1.588-.921-2.16-1.916.572 2.837zm4.916-7.399c.582-.272 1.165-.306 1.747-.098a2.155 2.155 0 011.272 1.17 2.16 2.16 0 01.076 1.73c-.217.58-.616 1.007-1.198 1.279l-1.065.498.927 2-1.196.557-2.821-6.082 2.258-1.054zM56.6 14.6a.923.923 0 00.508-.56 1.02 1.02 0 00-.052-.773 1 1 0 00-.558-.544.926.926 0 00-.754.036l-1.065.498.856 1.842L56.6 14.6zm7.869.508l-.797-.99-2.496.935.046 1.272-1.334.498-.147-7.108 1.53-.572 4.54 5.462-1.343.503zm-3.333-1.362l1.719-.644-1.814-2.247.095 2.891zm7.354-6.829l1.263-.343L71.5 13.05l-1.263.343-.722-2.683-2.398.651.724 2.684-1.271.345-1.747-6.476 1.271-.345.695 2.57 2.398-.65-.697-2.572zm7.528-1.547l.226 1.244-1.776.325.973 5.357-1.298.236-.972-5.357-1.767.322-.225-1.245 4.84-.883zm1.31-.146l1.307-.162.818 6.66-1.307.161-.818-6.66zm7.853-.668l.4 6.698-1.317.079-.138-2.326-.753.045-1.398 2.417-1.479.088L81.98 8.99a2.145 2.145 0 01-1.087-.723 2.035 2.035 0 01-.473-1.2 2.148 2.148 0 01.554-1.607c.407-.46.918-.708 1.536-.744l2.671-.16zM82.703 7.93l1.355-.081-.119-1.98-1.355.081a.85.85 0 00-.622.325.99.99 0 00-.226.715 1 1 0 00.309.687.84.84 0 00.658.253z" fill="#fff"/><path d="M72.776 47.5h5.4V79h-6.21V54.07l-5.94 1.665-1.53-5.31 8.28-2.925zM97.83 79.63c-3.93 0-7.02-1.485-9.27-4.455-2.22-3-3.33-6.975-3.33-11.925 0-4.95 1.11-8.91 3.33-11.88 2.25-3 5.34-4.5 9.27-4.5 3.96 0 7.05 1.5 9.27 4.5 2.22 2.97 3.33 6.93 3.33 11.88 0 4.95-1.11 8.925-3.33 11.925-2.22 2.97-5.31 4.455-9.27 4.455zm-4.77-8.685c1.08 1.74 2.67 2.61 4.77 2.61 2.1 0 3.69-.885 4.77-2.655 1.11-1.77 1.665-4.32 1.665-7.65 0-3.36-.555-5.925-1.665-7.695-1.08-1.77-2.67-2.655-4.77-2.655-2.1 0-3.69.885-4.77 2.655-1.08 1.77-1.62 4.335-1.62 7.695 0 3.36.54 5.925 1.62 7.695zM57.322 86.5c2.357 0 4.34.793 5.95 2.38 1.61 1.587 2.415 3.535 2.415 5.845 0 2.31-.805 4.258-2.415 5.845-1.61 1.587-3.593 2.38-5.95 2.38h-4.305V111h-4.83V86.5h9.135zm0 11.935c1.027 0 1.878-.35 2.555-1.05.677-.723 1.015-1.61 1.015-2.66 0-1.073-.338-1.96-1.015-2.66-.677-.7-1.528-1.05-2.555-1.05h-4.305v7.42h4.305zM82.37 108.83c-1.796 1.773-3.99 2.66-6.58 2.66s-4.783-.887-6.58-2.66c-1.773-1.797-2.66-3.99-2.66-6.58s.887-4.772 2.66-6.545c1.797-1.797 3.99-2.695 6.58-2.695s4.784.898 6.58 2.695c1.797 1.773 2.695 3.955 2.695 6.545s-.898 4.783-2.694 6.58zm-9.975-3.115c.91.91 2.042 1.365 3.395 1.365 1.354 0 2.486-.455 3.395-1.365.91-.91 1.365-2.065 1.365-3.465s-.455-2.555-1.365-3.465c-.91-.91-2.041-1.365-3.394-1.365-1.354 0-2.486.455-3.396 1.365-.886.91-1.33 2.065-1.33 3.465s.444 2.555 1.33 3.465zM104.376 111h-5.25l-6.37-7.945V111H88.24V93.5h4.515v7.7l6.02-7.7h5.39l-7.035 8.645 7.245 8.855zm4.493-19.6c-.746 0-1.4-.268-1.96-.805-.536-.56-.805-1.213-.805-1.96 0-.747.269-1.4.805-1.96.56-.56 1.214-.84 1.96-.84.77 0 1.424.28 1.96.84.56.56.84 1.213.84 1.96 0 .747-.28 1.4-.84 1.96a2.666 2.666 0 01-1.96.805zm-2.24 19.6V93.5h4.515V111h-4.515zm21.248-8.96c1.633.793 2.45 2.123 2.45 3.99 0 1.47-.513 2.672-1.54 3.605-1.003.91-2.438 1.365-4.305 1.365h-9.205V93.5h8.505c1.843 0 3.267.455 4.27 1.365 1.027.91 1.54 2.1 1.54 3.57 0 1.54-.572 2.742-1.715 3.605zm-4.515-4.83h-3.85v3.15h3.85c1.283 0 1.925-.525 1.925-1.575 0-1.05-.642-1.575-1.925-1.575zm.595 9.975c1.307 0 1.96-.56 1.96-1.68 0-.49-.175-.875-.525-1.155-.35-.28-.828-.42-1.435-.42h-4.445v3.255h4.445z" fill="#E4801D"/></svg>