<svg width="150" height="148" fill="none" xmlns="http://www.w3.org/2000/svg"><path fill-rule="evenodd" clip-rule="evenodd" d="M66 59v30l24-15-24-15zm19.33 15L68.678 84.404V63.596L85.332 74h-.003z" fill="#fff"/><path d="M76.878 2.475l4.284.328c1.105.084 2.007.525 2.706 1.323.698.8 1.005 1.738.92 2.816-.084 1.078-.529 1.959-1.342 2.641a3.796 3.796 0 01-2.515.913 5.05 5.05 0 01-.36-.013l-2.019-.155-.29 3.756-2.264-.172.88-11.437zm4.005 5.903c.418 0 .779-.138 1.084-.414.344-.307.534-.706.57-1.196.04-.502-.088-.928-.38-1.279-.292-.35-.679-.545-1.161-.581l-2.018-.155-.266 3.463 2.02.155c.052.005.102.007.151.007zM76.281 1.78l-.05.644-.88 11.434-.05.644.647.05 2.265.172.646.05.05-.645.24-3.11 1.371.105c.138.011.275.015.409.015a4.433 4.433 0 002.934-1.065c.945-.794 1.475-1.834 1.57-3.085.095-1.252-.266-2.357-1.079-3.287-.81-.927-1.868-1.446-3.144-1.543l-4.282-.33-.647-.049zm3.13 5.844l.168-2.176 1.371.106c.305.023.532.133.712.348.184.222.26.482.233.816-.026.327-.138.57-.359.766a.924.924 0 01-.65.248 1.67 1.67 0 01-.102-.004l-1.373-.104zm8.892-3.926l2.215.502-2.078 9.073 4.284.973-.483 2.11-6.5-1.475 2.562-11.183zm-.488-.773l-.145.629-2.56 11.183-.146.628.632.144 6.5 1.475.634.144.145-.63.482-2.11.145-.629-.631-.144-3.653-.829 1.933-8.444.145-.629-.631-.144-2.217-.5-.633-.144z" fill="#fff"/><path d="M100.991 7.32l2.606 1.062-.612 12.14-2.286-.93.145-2.171-4.252-1.73-1.425 1.65-2.27-.923 8.094-9.097zm.32 2.946l-3.244 3.74 2.926 1.191.318-4.931zm-.5-3.716l-.305.343-8.092 9.096-.605.683.845.344 2.27.924.433.176.305-.353 1.12-1.298 3.385 1.378-.115 1.707-.03.465.432.176 2.286.93.848.345.045-.911.612-12.14.024-.457-.426-.172-2.606-1.061-.426-.175zm-1.663 7.2l1.393-1.605-.136 2.116-1.257-.51zm8.583-3.618l2.202 1.315-.329 5.384 4.619-2.82 2.202 1.315-7.005 3.976-2.311 3.836-1.934-1.156 2.312-3.836.244-8.014zm-.614-1.12l-.032 1.1-.238 7.847-2.225 3.692-.333.553.555.331 1.934 1.156.555.332.333-.553 2.226-3.69 6.857-3.892.962-.547-.951-.568-2.202-1.315-.337-.203-.335.205-3.555 2.172.253-4.146.023-.392-.337-.202-2.201-1.315-.952-.564zm15.772 11.496l3.06 3c.789.775 1.191 1.69 1.206 2.75.015 1.058-.357 1.97-1.12 2.741-.763.771-1.676 1.156-2.738 1.156-1.061 0-1.989-.387-2.779-1.16l-1.442-1.414-2.658 2.684-1.617-1.586 8.088-8.171zm.27 7.465h.058c.461-.015.865-.198 1.213-.547.355-.357.535-.764.539-1.22.004-.457-.164-.853-.508-1.191l-1.443-1.414-2.448 2.473 1.443 1.414c.326.323.709.485 1.146.485zm-.277-8.378l-.456.46-8.086 8.17-.456.46.463.454 1.617 1.587.463.454.456-.46 2.202-2.224.979.96c.913.893 2.001 1.347 3.233 1.347 1.239 0 2.316-.454 3.201-1.347.884-.896 1.325-1.974 1.306-3.205-.017-1.23-.489-2.306-1.401-3.2l-3.06-3-.461-.456zm-1.397 6.473l1.538-1.555.979.96a.948.948 0 01.316.724c-.002.288-.115.534-.35.773-.232.232-.476.346-.772.355h-.039a.94.94 0 01-.694-.3l-.978-.957zm9.333 2.708l1.367 1.805-7.465 5.604 2.647 3.493-1.734 1.303-4.014-5.298 9.199-6.907zm.128-.904l-.519.39-9.199 6.904-.52.39.392.517 4.014 5.297.391.517.519-.39 1.734-1.302.519-.39-.391-.516-2.256-2.977 6.946-5.214.517-.39-.391-.516-1.367-1.806-.389-.514z" fill="#fff"/><path d="M138.175 39.676l1.309 2.48-8.32 8.899-1.148-2.177 1.516-1.569-2.134-4.047-2.159.351-1.139-2.16 12.075-1.777zm-1.658 2.46l-4.903.786 1.469 2.786 3.434-3.571zm2.019-3.164l-.456.067-12.075 1.776-.904.133.426.805 1.139 2.162.219.41.46-.075 1.696-.275 1.699 3.222-1.191 1.234-.324.336.218.41 1.148 2.177.426.807.623-.667 8.319-8.899.314-.336-.214-.404-1.308-2.48-.215-.403zm-5.929 4.443l2.104-.338-1.473 1.533-.631-1.195zm8.912 2.734l.832 2.417-3.732 3.91 5.359.802.834 2.418-7.93-1.45-4.249 1.454-.733-2.123 4.249-1.453 5.37-5.975zm.253-1.25l-.738.82-5.257 5.848-4.089 1.397-.614.209.21.611.733 2.123.209.61.615-.208 4.089-1.397 7.763 1.416 1.09.2-.361-1.043-.835-2.418-.127-.37-.389-.058-4.127-.618 2.874-3.01.271-.283-.128-.37-.832-2.418-.357-1.042zm4.625 18.923l.392 4.257c.101 1.098-.186 2.058-.859 2.876-.674.818-1.552 1.277-2.634 1.376-.136.013-.27.02-.402.02a3.68 3.68 0 01-2.437-.896c-.813-.683-1.27-1.574-1.369-2.672l-.184-2.006-3.769.344-.208-2.251 11.47-1.048zm-3.505 6.283c.065 0 .13-.002.197-.009.501-.045.904-.24 1.202-.587.298-.345.426-.758.383-1.236l-.184-2.006-3.475.316.184 2.007c.043.477.246.86.609 1.145a1.7 1.7 0 001.084.37zm4.091-6.985l-.646.058-11.475 1.046-.646.058.058.644.208 2.251.058.644.647-.058 3.125-.284.125 1.365c.117 1.267.653 2.314 1.598 3.106a4.332 4.332 0 002.857 1.048c.151 0 .307-.007.463-.022 1.256-.114 2.29-.656 3.077-1.608.783-.95 1.12-2.075 1.003-3.342l-.391-4.258-.061-.648zm-5.263 4.047l2.182-.198.125 1.364c.028.304-.045.545-.227.756-.188.217-.434.334-.77.366a1.514 1.514 0 01-.138.006c-.266 0-.482-.073-.681-.23a.942.942 0 01-.366-.697l-.125-1.367zm-6.129 7.435l11.505.622-.123 2.258-9.336-.504-.238 4.368-2.169-.117.361-6.627zm-.614-.678l-.034.645-.362 6.626-.034.646.649.034 2.169.116.648.035.035-.646.203-3.724 8.687.47.649.034.035-.646.123-2.258.034-.646-.648-.034-11.505-.622-.649-.03z" fill="#fff"/><path d="M135.28 81.888l10.384 6.389-.605 2.736-12.123 1.468.532-2.4 2.173-.228.988-4.465-1.877-1.117.528-2.383zm2.586 7.73l4.937-.527-4.256-2.545-.681 3.072zm-3.023-8.759l-.197.89-.527 2.382-.102.454.402.24 1.475.877-.787 3.554-1.709.179-.465.05-.101.454-.532 2.4-.197.889.908-.11 12.123-1.468.457-.056.099-.448.606-2.736.099-.447-.391-.241-10.385-6.39-.776-.473zm3.849 8.02l.292-1.317 1.828 1.092-2.12.226zm-6.829 5.995l4.189 1.617 7.975-1.121-.928 2.382-5.384.593 3.576 4.051-.927 2.382-5.125-6.195-4.189-1.616.813-2.093zm-.372-.835l-.234.603-.815 2.092-.234.603.606.233 4.031 1.556 5.017 6.066.705.852.4-1.029.928-2.383.143-.366-.26-.294-2.755-3.12 4.148-.456.391-.043.143-.366.928-2.383.4-1.027-1.097.155-7.806 1.098-4.031-1.556-.608-.235zm-4.628 11.411l9.453 6.559-2.457 3.509c-.634.904-1.473 1.455-2.519 1.649a4.125 4.125 0 01-.736.069c-.767 0-1.492-.235-2.171-.707-.891-.617-1.427-1.448-1.604-2.492-.18-1.044.047-2.017.681-2.921l1.157-1.653-3.106-2.155 1.302-1.858zm3.891 9.579a1.61 1.61 0 001.362-.721l1.157-1.653-2.863-1.987-1.157 1.653a1.57 1.57 0 00-.275 1.268c.093.45.342.816.746 1.098.333.228.675.342 1.03.342zm-4.051-10.479l-.372.53-1.299 1.855-.372.53.532.37 2.573 1.787-.787 1.124c-.731 1.044-.997 2.189-.789 3.401.207 1.214.839 2.195 1.874 2.912.788.547 1.642.822 2.541.822.279 0 .567-.028.853-.079 1.213-.224 2.199-.87 2.932-1.914l2.457-3.509.372-.529-.532-.37-9.453-6.559-.53-.371zm4.051 9.833c-.221 0-.437-.075-.658-.228-.27-.187-.424-.409-.482-.697-.056-.276-.002-.519.173-.769l.787-1.123 1.799 1.248-.787 1.124c-.175.249-.385.387-.664.432a1.056 1.056 0 01-.168.013zm-9.678-1.065l8.386 7.863-1.557 1.647-6.805-6.382-3.012 3.183-1.581-1.483 4.569-4.828zm-.028-.913l-.445.469-4.572 4.831-.446.469.472.443 1.581 1.484.471.443.446-.469 2.569-2.715 6.332 5.939.471.444.446-.47 1.557-1.646.445-.469-.471-.444-8.387-7.863-.469-.446z" fill="#fff"/><path d="M116.111 118.684l3.802 11.547-2.237 1.702-10.217-6.658 1.961-1.494 1.81 1.221 3.646-2.779-.711-2.058 1.946-1.481zm1.085 10.335l-1.606-4.678-2.509 1.912 4.115 2.766zm-.752-11.4l-.727.553-1.948 1.483-.372.282.151.439.56 1.617-2.904 2.213-1.423-.961-.387-.26-.372.282-1.961 1.494-.727.553.766.499 10.217 6.658.385.25.366-.278 2.236-1.702.365-.278-.142-.435-3.8-11.546-.283-.863zm-2.254 8.601l1.077-.82.69 2.006-1.767-1.186zm-9.102.205l2.161 3.922 6.829 4.251-2.253 1.229-4.505-2.998.117 5.392-2.251 1.229.084-8.025-2.16-3.922 1.978-1.078zm.256-.876l-.569.31-1.977 1.078-.569.31.312.566 2.078 3.774-.084 7.854-.011 1.105.973-.532 2.251-1.229.346-.19-.008-.391-.091-4.153 3.469 2.308.326.217.346-.189 2.251-1.229.971-.53-.938-.583-6.685-4.163-2.078-3.774-.313-.559zm-10.921 5.769l2.982 11.077-4.15 1.106a4.289 4.289 0 01-1.107.151c-.66 0-1.287-.168-1.886-.506-.923-.523-1.526-1.307-1.808-2.351-.28-1.044-.153-2.023.385-2.936.539-.912 1.343-1.511 2.414-1.797l1.955-.521-.98-3.64 2.195-.583zm-2.189 10.207c.154 0 .31-.022.472-.065l1.955-.52-.904-3.356-1.955.521c-.467.124-.81.387-1.032.792a1.72 1.72 0 00-.14 1.317c.13.484.391.846.785 1.081.26.153.53.23.82.23zm2.648-11l-.628.168-2.195.586-.627.168.169.624.81 3.016-1.33.355c-1.236.329-2.179 1.033-2.804 2.094-.627 1.064-.778 2.217-.452 3.429.327 1.212 1.038 2.136 2.115 2.745a4.44 4.44 0 002.206.592c.415 0 .843-.058 1.276-.172l4.15-1.107.627-.168-.169-.624-2.982-11.077-.166-.629zm-2.648 10.354a.914.914 0 01-.482-.138c-.248-.148-.404-.368-.493-.693-.084-.316-.058-.583.082-.841a.95.95 0 01.63-.478l1.328-.355.566 2.107-1.33.355a1.164 1.164 0 01-.3.043zm-7.322-7.262l1.308 11.393-2.257.256-1.062-9.245-4.366.497-.247-2.148 6.624-.753zm.571-.715l-.644.073-6.624.753-.645.074.074.641.246 2.148.074.642.644-.073 3.722-.424.988 8.603.074.642.644-.073 2.258-.256.644-.074-.073-.641-1.308-11.394-.074-.641z" fill="#fff"/><path d="M66.751 134.013l2.465.116.593 2.094 4.587.216.79-2.03 2.45.114-4.57 11.266-2.812-.131-3.503-11.645zm5.024 9.109l1.799-4.606-3.157-.149 1.358 4.755zm-5.908-9.796l.261.874 3.504 11.645.132.44.458.021 2.811.131.461.022.173-.424 4.57-11.267.341-.844-.913-.043-2.45-.114-.467-.021-.168.435-.621 1.595-3.653-.173-.467-1.646-.127-.448-.467-.022-2.466-.116-.912-.045zm6.003 7.769l-.582-2.041 1.354.062-.772 1.979zm-9.885-8.165l2.21.443-.886 4.385 2.47 7.631-2.518-.504-1.505-5.183-3.402 4.197-2.517-.503 5.26-6.081.888-4.385zm-.508-.76l-.128.633-.854 4.219-5.149 5.954-.724.837 1.087.218 2.517.503.386.078.246-.306 2.619-3.233 1.157 3.991.11.377.385.077 2.517.504 1.086.217-.34-1.048-2.417-7.472.854-4.219.127-.633-.636-.127-2.21-.443-.633-.127zm-10.657-2.859l2.056.96-4.894 10.384-3.89-1.816c-1.003-.47-1.689-1.199-2.059-2.192-.367-.992-.322-1.978.139-2.957.46-.98 1.193-1.645 2.195-1.998.43-.151.86-.226 1.29-.226.574 0 1.145.134 1.718.4l1.834.857 1.61-3.412zm-3.992 8.471l1.48-3.145-1.833-.857a1.688 1.688 0 00-.718-.168c-.194 0-.39.037-.584.112-.43.168-.75.474-.96.917-.214.454-.246.898-.1 1.328.15.431.442.749.879.954l1.836.859zm3.678-9.329l-.275.585-1.332 2.826-1.245-.581a4.68 4.68 0 00-1.994-.463 4.56 4.56 0 00-1.507.263c-1.168.411-2.031 1.195-2.567 2.331-.537 1.137-.59 2.299-.16 3.455.428 1.154 1.232 2.013 2.391 2.553l3.89 1.817.589.273.275-.585 4.893-10.384.275-.586-.588-.273-2.057-.96-.588-.271zm-3.99 8.47l-1.245-.581c-.277-.129-.45-.312-.541-.577-.093-.274-.071-.54.074-.846.14-.297.332-.484.607-.59a.977.977 0 01.348-.069c.143 0 .288.035.444.108l1.245.581-.932 1.974zm-7.962-14.67l5.553 3.672-6.375 9.554-1.892-1.251 5.173-7.752-3.661-2.419 1.202-1.804zm-.182-.895l-.359.538-1.202 1.802-.359.538.54.357 3.121 2.062-4.814 7.213-.359.539.541.357 1.892 1.251.54.357.36-.538 6.375-9.553.359-.539-.54-.357-5.554-3.672-.54-.355z" fill="#fff"/><path d="M29.973 114.575l1.808 1.672-.904 1.981 3.365 3.11 1.918-1.044 1.797 1.662-10.796 5.672-2.063-1.907 4.875-11.146zm-2.068 10.186l4.362-2.364-2.316-2.139-2.046 4.503zm1.838-11.28l-.365.836-4.874 11.146-.184.419.337.313 2.063 1.907.338.312.406-.213 10.796-5.672.808-.424-.67-.62-1.797-1.662-.342-.317-.41.224-1.508.82-2.68-2.477.712-1.556.193-.424-.342-.317-1.808-1.672-.672-.623zm-.45 9.792l.879-1.933.992.92-1.87 1.013zm-2.259-12.583l1.404 1.758-3.519 2.781-3.055 7.418-1.599-2.002 2.208-4.925-5.32 1.027-1.597-2.002 7.96-1.272 3.518-2.783zm.106-.909l-.508.403-3.387 2.677-7.793 1.247-1.095.174.69.865 1.598 2.002.245.308.387-.075 4.096-.79-1.7 3.793-.16.357.244.308 1.598 2.002.688.863.42-1.018 2.993-7.263 3.386-2.678.508-.402-.404-.506-1.404-1.759-.402-.508zM13.012 98.194a3.8 3.8 0 011.343.252c.995.372 1.726 1.059 2.19 2.06l.85 1.829 3.437-1.58.953 2.052-10.458 4.811-1.801-3.881c-.465-1.001-.517-2-.158-2.997.36-.996 1.034-1.72 2.02-2.174a3.85 3.85 0 011.624-.372zm-.714 6.485l3.168-1.457-.85-1.83a1.59 1.59 0 00-.96-.876 1.696 1.696 0 00-.551-.092c-.257 0-.517.06-.779.181-.458.211-.77.529-.934.953a1.59 1.59 0 00.056 1.292l.85 1.829zm.714-7.131a4.55 4.55 0 00-1.9.433c-1.145.527-1.938 1.382-2.358 2.542-.417 1.156-.357 2.329.18 3.485l1.8 3.881.273.585.589-.271 10.458-4.811.588-.271-.273-.586-.953-2.051-.273-.585-.588.271-2.848 1.311-.578-1.244c-.536-1.156-1.394-1.962-2.55-2.394a4.415 4.415 0 00-1.567-.295zm-.396 6.275l-.577-1.244c-.128-.278-.14-.528-.039-.788.104-.269.296-.459.603-.601a1.19 1.19 0 01.506-.12c.115 0 .227.019.342.058.268.09.452.26.58.536l.577 1.242-1.992.917zm3.4-16.323l1.87 6.37-11.059 3.217-.638-2.17 8.973-2.61-1.233-4.2 2.087-.607zm.439-.8l-.623.18-2.085.607-.623.18.182.62 1.051 3.58-8.35 2.43-.622.181.181.62.638 2.17.182.62.623-.18 11.059-3.219.623-.18-.182-.62-1.87-6.37-.184-.62z" fill="#fff"/><path d="M14.435 76.128l.299 2.439-1.975.932.554 4.537 2.143.435.296 2.424-11.924-2.6-.34-2.782 10.947-5.385zm-3.317 7.448l-.38-3.124-4.484 2.127 4.864.997zm3.851-8.432l-.821.405-10.95 5.383-.412.203.056.454.34 2.781.056.454.45.1 11.924 2.6.893.195-.11-.904-.297-2.424-.056-.462-.459-.093-1.684-.342-.441-3.614 1.553-.732.421-.2-.056-.463-.298-2.439-.109-.902zm-6.69 7.192l1.922-.913.164 1.339-2.087-.426zM3.307 66.997l6.91 4.135 4.49.131-.066 2.243-4.492-.131-7.138 3.709.075-2.556 4.877-2.348-4.732-2.63.076-2.553zm-.617-1.124l-.032 1.104-.076 2.555-.01.392.343.192 3.642 2.025-3.756 1.808-.355.17-.01.392-.076 2.555-.033 1.1.982-.51 6.991-3.631 4.323.127.65.02.019-.647.067-2.243.02-.645-.65-.02-4.323-.127-6.764-4.049-.952-.568zm6.821-14.069c.35 0 .71.05 1.077.15 1.047.287 1.832.892 2.35 1.815.52.924.634 1.918.34 2.981l-.536 1.944 3.65.997-.601 2.18L4.68 58.838l1.135-4.124c.292-1.063.9-1.862 1.819-2.392a3.704 3.704 0 011.877-.518zm1.185 6.328l.534-1.944a1.577 1.577 0 00-.166-1.285c-.238-.393-.597-.654-1.073-.785a2.05 2.05 0 00-.534-.076c-.283 0-.55.07-.8.205-.402.22-.666.56-.794 1.022l-.536 1.944 3.37.92zm-1.185-6.974c-.763 0-1.505.202-2.2.605-1.068.616-1.781 1.552-2.119 2.779l-1.135 4.124-.17.622.624.17 11.111 3.033.625.17.171-.622.601-2.18.171-.623-.625-.17-3.025-.826.363-1.322c.338-1.229.203-2.396-.4-3.468-.605-1.076-1.529-1.788-2.744-2.12a4.774 4.774 0 00-1.248-.172zm-1.384 5.603l.363-1.322a.953.953 0 01.48-.628.994.994 0 01.49-.125c.112 0 .235.017.36.052.318.086.537.243.688.495.147.24.177.488.095.781l-.363 1.322-2.113-.575zm11.183-11.17l1.987.874-2.695 6.07-10.538-4.634.917-2.069 8.553 3.761 1.775-4.002zm-.331-.852l-.262.59-1.514 3.41-7.958-3.5-.595-.259-.261.59-.917 2.069-.262.59.593.26 10.537 4.634.593.26.262-.59 2.694-6.07.262-.59-.593-.26L19.571 45l-.593-.261z" fill="#fff"/><path d="M15.594 33.85l11.86 2.903-1.352 2.056-2.115-.554-2.513 3.828 1.358 1.705-1.343 2.042-7.434-9.637 1.54-2.344zm4.498 6.472l1.73-2.633-4.805-1.248 3.075 3.88zm-4.79-7.21l-.25.384-1.54 2.344-.253.383.28.364 7.436 9.637.558.721.5-.762 1.342-2.042.255-.39-.29-.366-1.066-1.341 2.003-3.046 1.66.435.453.118.255-.39 1.352-2.055.501-.762-.889-.218-11.859-2.903-.448-.11zm4.74 6.106l-1.319-1.667 2.061.536-.741 1.13zm4.821-16.584l2.6 7.597 3.347 2.985-1.505 1.673-3.348-2.984-7.86-1.752 1.712-1.903 5.249 1.337-1.91-5.048 1.715-1.905zm.258-1.253l-.74.823-1.713 1.903-.261.292.138.366 1.47 3.886-4.041-1.03-.38-.096-.263.293-1.712 1.902-.738.82 1.08.242 7.694 1.715 3.22 2.872.482.43.433-.48 1.505-1.672.432-.48-.482-.43-3.22-2.872-2.543-7.437-.361-1.047zm11.844-7.239c.231 0 .465.022.703.063 1.046.185 1.879.72 2.495 1.612.617.891.824 1.856.625 2.895-.2 1.04-.757 1.873-1.67 2.497l-1.667 1.143 2.148 3.104-1.87 1.283-6.536-9.445 3.538-2.426c.703-.485 1.449-.726 2.234-.726zm-.72 6.469l1.667-1.143c.398-.274.632-.635.705-1.09.071-.454-.032-.882-.311-1.289-.286-.413-.653-.665-1.103-.755a1.74 1.74 0 00-.331-.035c-.329 0-.64.104-.939.308l-1.667 1.143 1.979 2.86zm.72-7.114c-.915 0-1.793.282-2.604.84l-3.538 2.425-.534.366.368.532 6.535 9.445.367.532.535-.366 1.87-1.283.534-.366-.367-.532-1.78-2.572 1.133-.777c1.053-.723 1.706-1.7 1.938-2.908.233-1.21-.011-2.349-.727-3.382S39 13.785 37.78 13.57a4.575 4.575 0 00-.815-.073zm-1.797 4.419l1.133-.777a.993.993 0 01.57-.194c.066 0 .133.006.202.021.283.056.506.214.696.49.186.268.251.529.206.82-.044.277-.182.486-.433.658l-1.133.777-1.241-1.795zm7.728-7.816l4.113 8.356 3.947-1.924.956 1.941-5.986 2.92-5.07-10.3 2.04-.993zm.297-.865l-.582.284-2.04.994-.581.284.285.58 5.07 10.3.285.578.581-.284 5.986-2.919.582-.284-.286-.579-.955-1.941-.286-.58-.582.285-3.364 1.64-3.828-7.777-.285-.582z" fill="#fff"/><path d="M55.707 5.166l7.19 9.827-2.363.706-1.259-1.78-4.398 1.315-.065 2.174-2.349.702.55-12.139 2.694-.805zm-.746 7.838l3.028-.904-2.868-4.036-.16 4.94zm1-8.587l-.442.131-2.697.805-.44.132-.023.458-.544 12.139-.042.908.876-.263 2.349-.701.447-.134.016-.465.052-1.709 3.503-1.046.988 1.4.268.38.448-.133 2.364-.706.877-.263-.538-.736-7.19-9.827-.273-.37zm-.323 7.709l.07-2.12 1.23 1.73-1.3.39zm14.435-9.582l-2.94 7.474.624 4.43-2.234.31-.623-4.43-4.868-6.387 2.543-.353 3.144 4.394L67.532 2.9l2.54-.356zm1.007-.792l-1.098.153-2.543.353-.39.054-.132.37-1.394 3.913-2.42-3.381-.23-.319-.389.054-2.543.353-1.096.153.668.878 4.766 6.251.6 4.262.09.64.642-.09 2.234-.31.642-.091-.09-.64-.6-4.262 2.877-7.316.406-1.025z" fill="#fff"/></svg>